<?xml version="1.0" encoding="UTF-8" standalone="no"?>
<!DOCTYPE svg PUBLIC "-//W3C//DTD SVG 1.1//EN" "http://www.w3.org/Graphics/SVG/1.1/DTD/svg11.dtd">
<svg width="100%" height="100%" viewBox="0 0 707 220" version="1.1" xmlns="http://www.w3.org/2000/svg" xmlns:xlink="http://www.w3.org/1999/xlink" xml:space="preserve" xmlns:serif="http://www.serif.com/" style="fill-rule:evenodd;clip-rule:evenodd;stroke-linejoin:round;stroke-miterlimit:1.41421;">
    <g transform="matrix(1,0,0,1,95.574,54.11)">
        <path d="M0,110.844C-0.781,116.787 -2.162,121.579 -4.138,125.218C-6.116,128.86 -8.85,131.486 -12.344,133.097C-15.838,134.71 -20.343,135.516 -25.858,135.516C-31.467,135.516 -36.524,135.124 -41.028,134.34C-45.533,133.559 -49.395,132.659 -52.613,131.645C-56.383,130.54 -59.738,129.25 -62.68,127.775L-62.68,45.125C-59.278,44.205 -55.74,43.329 -52.062,42.499C-48.844,41.855 -45.257,41.256 -41.303,40.702C-37.352,40.15 -33.259,39.872 -29.03,39.872C-22.318,39.872 -16.963,40.587 -12.964,42.015C-8.964,43.445 -5.931,46.002 -3.861,49.687C-1.792,53.372 -0.437,58.371 0.207,64.682C0.851,70.993 1.172,79.034 1.172,88.799C1.172,97.555 0.781,104.902 0,110.844M25.511,30.958C21.738,24.372 16.654,19.348 10.26,15.893C3.865,12.438 -4.209,10.711 -13.962,10.711C-20.863,10.711 -27.258,11.264 -33.145,12.368C-39.033,13.475 -44.187,14.674 -48.603,15.962C-53.664,17.531 -58.356,19.234 -62.68,21.076L-62.68,-54.11L-95.574,-54.11L-95.574,160.669L-67.122,160.669L-65.179,149.059C-60.855,152.01 -56.07,154.681 -50.822,157.075C-46.313,159.104 -41.046,160.922 -35.02,162.534C-28.991,164.146 -22.48,164.954 -15.486,164.954C-7.388,164.954 -0.143,163.593 6.254,160.877C12.65,158.159 18.011,153.714 22.336,147.54C26.659,141.367 29.972,133.351 32.274,123.49C34.573,113.632 35.725,101.515 35.725,87.142C35.725,75.164 34.965,64.453 33.446,55.007C31.929,45.563 29.283,37.548 25.511,30.958" style="fill:rgb(246,244,243);fill-rule:nonzero;"/>
    </g>
    <g transform="matrix(1,0,0,1,245.278,101.448)">
        <path d="M0,81.819C-3.227,83.387 -6.682,84.77 -10.366,85.966C-13.593,86.981 -17.301,87.925 -21.492,88.8C-25.686,89.676 -30.13,90.113 -34.829,90.113C-38.423,90.113 -41.625,89.929 -44.435,89.56C-47.247,89.193 -49.617,88.384 -51.553,87.141C-53.487,85.897 -54.962,84.079 -55.975,81.682C-56.99,79.287 -57.495,76.062 -57.495,72.006C-57.495,67.954 -56.99,64.706 -55.975,62.263C-54.962,59.823 -53.396,57.933 -51.276,56.596C-49.158,55.262 -46.463,54.384 -43.191,53.97C-39.921,53.555 -35.982,53.349 -31.374,53.349C-27.228,53.349 -23.288,53.51 -19.558,53.833C-15.825,54.156 -12.486,54.548 -9.537,55.007C-6.129,55.468 -2.95,55.974 0,56.527L0,81.819ZM30.405,-3.594C29.576,-7.188 28.516,-10.32 27.227,-12.993C25.936,-15.664 24.324,-18.198 22.39,-20.594C20.085,-23.449 17.483,-25.847 14.58,-27.782C11.679,-29.716 8.337,-31.282 4.561,-32.48C0.781,-33.677 -3.572,-34.53 -8.5,-35.037C-13.431,-35.542 -19.073,-35.798 -25.431,-35.798C-34.922,-35.798 -43.122,-35.358 -50.032,-34.479C-56.943,-33.597 -62.702,-32.649 -67.309,-31.632C-72.746,-30.427 -77.307,-29.085 -80.991,-27.605L-80.991,-4.562C-76.938,-5.115 -72.653,-5.619 -68.138,-6.081C-64.268,-6.542 -59.869,-6.934 -54.938,-7.257C-50.011,-7.578 -44.919,-7.741 -39.667,-7.741C-31.374,-7.741 -24.649,-7.282 -19.488,-6.363C-14.328,-5.443 -10.275,-3.929 -7.325,-1.817C-5.943,-0.716 -4.769,0.433 -3.801,1.628C-2.834,2.822 -2.073,4.291 -1.521,6.035C-0.968,7.78 -0.577,9.825 -0.346,12.166C-0.117,14.507 0,17.378 0,20.776L0,34.276C-3.687,32.986 -7.788,31.836 -12.301,30.82C-16.264,29.901 -20.939,29.071 -26.33,28.333C-31.72,27.596 -37.731,27.227 -44.365,27.227C-50.909,27.227 -57.012,28.01 -62.678,29.576C-68.345,31.144 -73.275,33.676 -77.467,37.177C-81.66,40.68 -84.978,45.287 -87.418,50.999C-89.86,56.714 -91.08,63.715 -91.08,72.006C-91.08,80.3 -90.229,87.349 -88.523,93.153C-86.82,98.958 -84.102,103.658 -80.369,107.252C-76.638,110.844 -71.824,113.47 -65.926,115.129C-60.03,116.787 -52.935,117.617 -44.643,117.617C-37.824,117.617 -31.581,116.833 -25.915,115.266C-20.248,113.7 -15.297,111.998 -11.058,110.152C-6.174,107.942 -1.706,105.409 2.349,102.551L4.837,113.332L32.617,113.332L32.617,25.015C32.617,18.843 32.455,13.429 32.134,8.776C31.81,4.124 31.235,0 30.405,-3.594" style="fill:rgb(246,244,243);fill-rule:nonzero;"/>
    </g>
    <g transform="matrix(1,0,0,1,344.026,197.779)">
        <path d="M0,-112.918L-1.943,-128.812L-30.396,-128.812L-30.396,17L2.499,17L2.499,-89.146C8.487,-91.541 15.697,-93.223 24.128,-94.19C32.559,-95.158 42.531,-95.732 54.052,-95.918L54.327,-129.918C43.178,-129.364 33.134,-127.568 24.197,-124.527C15.26,-121.487 7.193,-117.617 0,-112.918" style="fill:rgb(246,244,243);fill-rule:nonzero;"/>
    </g>
    <g transform="matrix(1,0,0,1,450.125,197.779)">
        <path d="M0,-112.918L-1.943,-128.812L-30.396,-128.812L-30.396,17L2.499,17L2.499,-89.146C8.487,-91.541 15.698,-93.223 24.129,-94.19C32.56,-95.158 42.532,-95.732 54.052,-95.918L54.327,-129.918C43.178,-129.364 33.135,-127.568 24.198,-124.527C15.26,-121.487 7.194,-117.617 0,-112.918" style="fill:rgb(246,244,243);fill-rule:nonzero;"/>
    </g>
    <g transform="matrix(1,0,0,1,615.458,153.691)">
        <path d="M0,-23.497L-63.161,-23.497C-63.161,-29.692 -62.725,-35.15 -61.849,-39.866C-60.974,-44.582 -59.314,-48.535 -56.873,-51.726C-54.433,-54.915 -51.022,-57.32 -46.645,-58.939C-42.27,-60.557 -36.626,-61.366 -29.714,-61.366C-23.266,-61.366 -18.105,-60.72 -14.234,-59.423C-10.365,-58.127 -7.372,-56.141 -5.252,-53.459C-3.133,-50.776 -1.728,-47.38 -1.036,-43.263C-0.345,-39.147 0,-34.316 0,-28.768L0,-23.497ZM18.521,-71.525C14.188,-77.006 8.362,-81.268 1.037,-84.31C-6.289,-87.351 -15.526,-88.87 -26.675,-88.87C-35.52,-88.87 -44.137,-87.786 -52.52,-85.623C-60.904,-83.456 -68.367,-79.563 -74.909,-73.943C-81.453,-68.322 -86.704,-60.627 -90.665,-50.862C-94.628,-41.095 -96.607,-28.61 -96.607,-13.407C-96.607,1.151 -95.065,13.453 -91.978,23.495C-88.892,33.539 -84.424,41.669 -78.571,47.89C-72.722,54.108 -65.558,58.578 -57.081,61.296C-48.604,64.012 -38.929,65.373 -28.057,65.373C-20.963,65.373 -14.283,64.89 -8.016,63.922C-1.751,62.953 3.731,61.87 8.432,60.674C13.96,59.292 19.072,57.727 23.772,55.974L23.772,33.032C19.717,33.77 15.203,34.369 10.228,34.828C5.988,35.29 1.059,35.682 -4.561,36.002C-10.182,36.327 -16.218,36.487 -22.665,36.487C-30.314,36.487 -36.693,35.865 -41.808,34.62C-46.922,33.377 -51.022,31.352 -54.109,28.54C-57.196,25.731 -59.408,22.092 -60.742,17.62C-62.079,13.153 -62.794,7.648 -62.885,1.106L28.472,1.106C29.024,-3.778 29.461,-8.522 29.784,-13.131C30.106,-17.737 30.269,-22.206 30.269,-26.537C30.269,-35.751 29.392,-44.182 27.642,-51.83C25.891,-59.476 22.85,-66.042 18.521,-71.525" style="fill:rgb(246,244,243);fill-rule:nonzero;"/>
    </g>
    <g transform="matrix(1,0,0,1,-873.868,-461.331)">
        <rect x="1547.11" y="461.331" width="32.895" height="214.779" style="fill:rgb(246,244,243);"/>
    </g>
</svg>
